<mxfile host="Electron" modified="2024-10-02T19:16:08.104Z" agent="Mozilla/5.0 (Windows NT 10.0; Win64; x64) AppleWebKit/537.36 (KHTML, like Gecko) draw.io/22.1.15 Chrome/120.0.6099.109 Electron/28.1.0 Safari/537.36" etag="vKB1ctx5kycUCvdd0_Yu" version="22.1.15" type="device" pages="3">
  <diagram id="FH8q9B2xCXycQiPsqi_r" name="App Ecosystem">
    <mxGraphModel dx="1434" dy="870" grid="1" gridSize="10" guides="1" tooltips="1" connect="1" arrows="1" fold="1" page="1" pageScale="1" pageWidth="827" pageHeight="1169" math="0" shadow="0">
      <root>
        <mxCell id="0" />
        <mxCell id="1" parent="0" />
        <mxCell id="bmIrtmyAlZym6uhsjd3K-1" value="Application" style="rounded=0;whiteSpace=wrap;html=1;fontStyle=1;verticalAlign=top;fillColor=#e3c800;fontColor=#000000;strokeColor=#B09500;glass=1;" parent="1" vertex="1">
          <mxGeometry x="39" y="180" width="750" height="570" as="geometry" />
        </mxCell>
        <mxCell id="x_fH2iMenqRodoKAIqNX-1" value="Docker/Database::5444" style="rounded=1;whiteSpace=wrap;html=1;verticalAlign=top;fontStyle=1;fillColor=#6d8764;strokeColor=#3A5431;fontColor=#ffffff;glass=1;shadow=1;" parent="1" vertex="1">
          <mxGeometry x="499" y="230" width="190" height="220" as="geometry" />
        </mxCell>
        <mxCell id="x_fH2iMenqRodoKAIqNX-3" value="PGVector" style="rounded=1;whiteSpace=wrap;html=1;" parent="1" vertex="1">
          <mxGeometry x="534" y="280" width="120" height="60" as="geometry" />
        </mxCell>
        <mxCell id="x_fH2iMenqRodoKAIqNX-4" value="PGAdmin4" style="rounded=1;whiteSpace=wrap;html=1;" parent="1" vertex="1">
          <mxGeometry x="534" y="350" width="120" height="60" as="geometry" />
        </mxCell>
        <mxCell id="x_fH2iMenqRodoKAIqNX-6" value="Frontend::9000" style="rounded=1;whiteSpace=wrap;html=1;verticalAlign=top;fontStyle=1;fillColor=#647687;fontColor=#ffffff;strokeColor=#314354;glass=1;shadow=1;" parent="1" vertex="1">
          <mxGeometry x="133" y="470" width="190" height="110" as="geometry" />
        </mxCell>
        <UserObject label="Quasar&lt;br&gt;VueJS Framework" link="https://quasar.dev/vue-components" linkTarget="_blank" id="x_fH2iMenqRodoKAIqNX-5">
          <mxCell style="rounded=1;whiteSpace=wrap;html=1;" parent="1" vertex="1">
            <mxGeometry x="168" y="505" width="120" height="60" as="geometry" />
          </mxCell>
        </UserObject>
        <mxCell id="x_fH2iMenqRodoKAIqNX-8" value="Backend::8000" style="rounded=1;whiteSpace=wrap;html=1;verticalAlign=top;fontStyle=1;fillColor=#6d8764;fontColor=#ffffff;strokeColor=#3A5431;glass=1;shadow=1;" parent="1" vertex="1">
          <mxGeometry x="439" y="470" width="310" height="110" as="geometry" />
        </mxCell>
        <UserObject label="Laravel 10&lt;br&gt;PHP 8.2 Framework" link="https://laravel.com/docs/10.x" linkTarget="_blank" id="x_fH2iMenqRodoKAIqNX-9">
          <mxCell style="rounded=1;whiteSpace=wrap;html=1;" parent="1" vertex="1">
            <mxGeometry x="464" y="505" width="120" height="60" as="geometry" />
          </mxCell>
        </UserObject>
        <mxCell id="x_fH2iMenqRodoKAIqNX-12" value="3. Party Providers" style="rounded=1;whiteSpace=wrap;html=1;verticalAlign=top;fontStyle=1;fillColor=#76608a;fontColor=#ffffff;strokeColor=#432D57;glass=1;shadow=1;" parent="1" vertex="1">
          <mxGeometry x="69" y="610" width="700" height="200" as="geometry" />
        </mxCell>
        <mxCell id="ioVkTxZljA8v1CWKBHVO-1" style="edgeStyle=orthogonalEdgeStyle;rounded=0;orthogonalLoop=1;jettySize=auto;html=1;entryX=0.5;entryY=1;entryDx=0;entryDy=0;dashed=1;" parent="1" source="x_fH2iMenqRodoKAIqNX-13" target="x_fH2iMenqRodoKAIqNX-6" edge="1">
          <mxGeometry relative="1" as="geometry">
            <Array as="points">
              <mxPoint x="203" y="640" />
              <mxPoint x="228" y="640" />
            </Array>
          </mxGeometry>
        </mxCell>
        <UserObject label="Google API&lt;br&gt;Maps JavaScript API" link="https://console.cloud.google.com/marketplace/product/google/maps-backend.googleapis.com" linkTarget="_blank" id="x_fH2iMenqRodoKAIqNX-13">
          <mxCell style="rounded=1;whiteSpace=wrap;html=1;" parent="1" vertex="1">
            <mxGeometry x="117" y="660" width="171" height="60" as="geometry" />
          </mxCell>
        </UserObject>
        <mxCell id="x_fH2iMenqRodoKAIqNX-16" value="Laravel&lt;br&gt;Passport (OAuth 2.0)" style="rounded=1;whiteSpace=wrap;html=1;" parent="1" vertex="1">
          <mxGeometry x="599" y="505" width="120" height="60" as="geometry" />
        </mxCell>
        <mxCell id="x_fH2iMenqRodoKAIqNX-18" value="&lt;h1&gt;&lt;span style=&quot;background-color: initial;&quot;&gt;Ecopsystem&lt;/span&gt;&lt;/h1&gt;&lt;h1&gt;&lt;span style=&quot;font-size: 12px; font-weight: 400;&quot;&gt;System and Interfaces Overview&lt;/span&gt;&lt;/h1&gt;" style="text;html=1;strokeColor=none;fillColor=none;spacing=5;spacingTop=-20;whiteSpace=wrap;overflow=hidden;rounded=0;" parent="1" vertex="1">
          <mxGeometry x="60" y="30" width="190" height="120" as="geometry" />
        </mxCell>
        <mxCell id="x_fH2iMenqRodoKAIqNX-20" value="Code Management" style="rounded=1;whiteSpace=wrap;html=1;verticalAlign=top;fontStyle=1;fillColor=#f0a30a;strokeColor=#BD7000;fontColor=#000000;glass=1;shadow=1;" parent="1" vertex="1">
          <mxGeometry x="69" y="240" width="330" height="210" as="geometry" />
        </mxCell>
        <mxCell id="bmIrtmyAlZym6uhsjd3K-2" value="VS Code" style="rounded=1;whiteSpace=wrap;html=1;" parent="1" vertex="1">
          <mxGeometry x="99" y="300" width="120" height="60" as="geometry" />
        </mxCell>
        <mxCell id="x_fH2iMenqRodoKAIqNX-7" value="Github" style="rounded=1;whiteSpace=wrap;html=1;" parent="1" vertex="1">
          <mxGeometry x="99" y="370" width="120" height="60" as="geometry" />
        </mxCell>
        <mxCell id="x_fH2iMenqRodoKAIqNX-21" value="draw.io&lt;br&gt;Docs" style="rounded=1;whiteSpace=wrap;html=1;" parent="1" vertex="1">
          <mxGeometry x="250" y="300" width="120" height="60" as="geometry" />
        </mxCell>
        <UserObject label="Google API&lt;br&gt;Geocoding API" link="https://console.cloud.google.com/marketplace/product/google/geocoding-backend.googleapis.com" linkTarget="_blank" id="rYs_GlzzICnplb6q9k6M-1">
          <mxCell style="rounded=1;whiteSpace=wrap;html=1;" parent="1" vertex="1">
            <mxGeometry x="117" y="730" width="171" height="60" as="geometry" />
          </mxCell>
        </UserObject>
        <mxCell id="ioVkTxZljA8v1CWKBHVO-3" style="edgeStyle=orthogonalEdgeStyle;rounded=0;orthogonalLoop=1;jettySize=auto;html=1;entryX=0.5;entryY=1;entryDx=0;entryDy=0;dashed=1;" parent="1" source="rYs_GlzzICnplb6q9k6M-2" target="x_fH2iMenqRodoKAIqNX-8" edge="1">
          <mxGeometry relative="1" as="geometry">
            <Array as="points">
              <mxPoint x="620" y="640" />
              <mxPoint x="594" y="640" />
            </Array>
          </mxGeometry>
        </mxCell>
        <UserObject label="Payment Gateway&lt;br&gt;Paddle" link="https://developer.paddle.com/build/overview" linkTarget="_blank" id="rYs_GlzzICnplb6q9k6M-2">
          <mxCell style="rounded=1;whiteSpace=wrap;html=1;" parent="1" vertex="1">
            <mxGeometry x="534" y="660" width="171" height="60" as="geometry" />
          </mxCell>
        </UserObject>
        <mxCell id="ioVkTxZljA8v1CWKBHVO-5" value="API Token can be exposed" style="shape=note;whiteSpace=wrap;html=1;backgroundOutline=1;darkOpacity=0.05;size=12;fillColor=#f5f5f5;fontColor=#333333;strokeColor=#666666;" parent="1" vertex="1">
          <mxGeometry x="99" y="590" width="91" height="60" as="geometry" />
        </mxCell>
        <mxCell id="ioVkTxZljA8v1CWKBHVO-6" value="API Token must be private" style="shape=note;whiteSpace=wrap;html=1;backgroundOutline=1;darkOpacity=0.05;size=12;fillColor=#f5f5f5;fontColor=#333333;strokeColor=#666666;" parent="1" vertex="1">
          <mxGeometry x="640" y="590" width="91" height="60" as="geometry" />
        </mxCell>
        <mxCell id="YvGKsYKWOulqGdAswTcm-1" style="edgeStyle=orthogonalEdgeStyle;rounded=0;orthogonalLoop=1;jettySize=auto;html=1;entryX=0;entryY=0.5;entryDx=0;entryDy=0;dashed=1;strokeColor=default;startArrow=block;startFill=1;" parent="1" source="x_fH2iMenqRodoKAIqNX-6" target="x_fH2iMenqRodoKAIqNX-8" edge="1">
          <mxGeometry relative="1" as="geometry" />
        </mxCell>
        <mxCell id="YvGKsYKWOulqGdAswTcm-2" value="Rest-API" style="edgeLabel;html=1;align=center;verticalAlign=middle;resizable=0;points=[];" parent="YvGKsYKWOulqGdAswTcm-1" vertex="1" connectable="0">
          <mxGeometry x="0.0517" relative="1" as="geometry">
            <mxPoint as="offset" />
          </mxGeometry>
        </mxCell>
      </root>
    </mxGraphModel>
  </diagram>
  <diagram name="Software Overview" id="TGDNc4WADawrQPTaSJyK">
    <mxGraphModel dx="1434" dy="870" grid="1" gridSize="10" guides="1" tooltips="1" connect="1" arrows="1" fold="1" page="1" pageScale="1" pageWidth="827" pageHeight="1169" math="0" shadow="0">
      <root>
        <mxCell id="0" />
        <mxCell id="1" parent="0" />
        <mxCell id="7OKN_g6K1Okwr2jMo622-1" value="&lt;b&gt;Frontend - Vue / Quasar Framework&lt;/b&gt;" style="rounded=0;whiteSpace=wrap;html=1;verticalAlign=top;spacing=7;fillColor=#1ba1e2;strokeColor=#006EAF;fontColor=#ffffff;connectable=0;" parent="1" vertex="1">
          <mxGeometry x="240" y="210" width="700" height="900" as="geometry" />
        </mxCell>
        <mxCell id="0wEEUMUTr-7TU5VQjdjk-16" value="&lt;b&gt;Global Modules&lt;/b&gt;" style="rounded=1;whiteSpace=wrap;html=1;verticalAlign=top;spacing=10;connectable=1;sketch=1;curveFitting=1;jiggle=2;shadow=1;glass=1;fillColor=none;" parent="1" vertex="1">
          <mxGeometry x="273" y="930" width="610" height="160" as="geometry" />
        </mxCell>
        <mxCell id="0wEEUMUTr-7TU5VQjdjk-3" value="&lt;b&gt;Router&lt;/b&gt;" style="rounded=1;whiteSpace=wrap;html=1;verticalAlign=top;spacing=10;sketch=1;curveFitting=1;jiggle=2;shadow=1;glass=1;" parent="1" vertex="1">
          <mxGeometry x="283.25" y="270" width="610" height="45" as="geometry" />
        </mxCell>
        <mxCell id="pFFISRBgjYQDNrQd0_nO-4" value="&lt;h1&gt;Software Overview&lt;/h1&gt;&lt;div&gt;- Frontend&lt;/div&gt;&lt;div&gt;- Documentations&lt;/div&gt;&lt;div&gt;- Backend&lt;/div&gt;" style="text;html=1;strokeColor=none;fillColor=none;spacing=5;spacingTop=-20;whiteSpace=wrap;overflow=hidden;rounded=0;" parent="1" vertex="1">
          <mxGeometry x="111" y="50" width="240" height="120" as="geometry" />
        </mxCell>
        <mxCell id="7OKN_g6K1Okwr2jMo622-2" value="&lt;b&gt;Backend - Laravel 10 Framework&lt;br&gt;&lt;/b&gt;" style="rounded=0;whiteSpace=wrap;html=1;verticalAlign=top;spacing=7;fillColor=#0050ef;strokeColor=#001DBC;fontColor=#ffffff;connectable=0;" parent="1" vertex="1">
          <mxGeometry x="1250" y="210" width="970" height="840" as="geometry" />
        </mxCell>
        <mxCell id="7OKN_g6K1Okwr2jMo622-9" value="&lt;b&gt;Backend - Laravel 10&lt;/b&gt;" style="rounded=1;whiteSpace=wrap;html=1;verticalAlign=top;spacing=10;glass=1;sketch=1;curveFitting=1;jiggle=2;shadow=1;" parent="1" vertex="1">
          <mxGeometry x="1500" y="375" width="520" height="295" as="geometry" />
        </mxCell>
        <mxCell id="7OKN_g6K1Okwr2jMo622-11" value="&lt;b&gt;RestAPI&lt;/b&gt;" style="rounded=1;whiteSpace=wrap;html=1;verticalAlign=bottom;spacing=10;gradientColor=none;glass=1;sketch=1;curveFitting=1;jiggle=2;shadow=1;" parent="1" vertex="1">
          <mxGeometry x="1228.53" y="332.5" width="135.3" height="380" as="geometry" />
        </mxCell>
        <mxCell id="7OKN_g6K1Okwr2jMo622-13" value="Middleware &lt;br&gt;&amp;amp; AccessManagement" style="aspect=fixed;perimeter=ellipsePerimeter;html=1;align=center;shadow=0;dashed=0;spacingTop=3;image;image=img/lib/active_directory/key.svg;fontStyle=0" parent="1" vertex="1">
          <mxGeometry x="1265.7700000000002" y="404.25" width="60.81" height="45" as="geometry" />
        </mxCell>
        <mxCell id="7OKN_g6K1Okwr2jMo622-14" style="edgeStyle=orthogonalEdgeStyle;rounded=0;orthogonalLoop=1;jettySize=auto;html=1;entryX=0;entryY=0.25;entryDx=0;entryDy=0;startArrow=none;startFill=0;strokeWidth=3;fontSize=20;exitX=1;exitY=0.25;exitDx=0;exitDy=0;dashed=1;" parent="1" source="7OKN_g6K1Okwr2jMo622-18" target="7OKN_g6K1Okwr2jMo622-11" edge="1">
          <mxGeometry relative="1" as="geometry">
            <mxPoint x="890" y="520" as="sourcePoint" />
          </mxGeometry>
        </mxCell>
        <mxCell id="7OKN_g6K1Okwr2jMo622-17" value="Email Services" style="aspect=fixed;perimeter=ellipsePerimeter;html=1;align=center;shadow=0;dashed=0;spacingTop=3;image;image=img/lib/active_directory/printer.svg;fontSize=14;fontColor=#000000;" parent="1" vertex="1">
          <mxGeometry x="2092" y="270" width="95.45" height="63" as="geometry" />
        </mxCell>
        <mxCell id="7OKN_g6K1Okwr2jMo622-18" value="&lt;b&gt;Userinterface&lt;/b&gt;" style="rounded=1;whiteSpace=wrap;html=1;verticalAlign=top;spacing=10;connectable=1;sketch=1;curveFitting=1;jiggle=2;shadow=1;glass=1;" parent="1" vertex="1">
          <mxGeometry x="285" y="395" width="610" height="250" as="geometry" />
        </mxCell>
        <mxCell id="7OKN_g6K1Okwr2jMo622-19" value="Request&lt;br&gt;&lt;span style=&quot;font-size: 12px;&quot;&gt;Get, Post, Put, Delete&lt;/span&gt;" style="shape=internalStorage;whiteSpace=wrap;html=1;backgroundOutline=1;fontSize=17;align=left;verticalAlign=top;spacingTop=20;spacingLeft=25;fillColor=#b1ddf0;strokeColor=#10739e;rounded=1;glass=1;sketch=1;curveFitting=1;jiggle=2;shadow=1;" parent="1" vertex="1">
          <mxGeometry x="1010" y="315" width="160" height="80" as="geometry" />
        </mxCell>
        <mxCell id="7OKN_g6K1Okwr2jMo622-20" value="Response&lt;br&gt;&lt;font style=&quot;font-size: 12px&quot;&gt;JSON&lt;/font&gt;" style="shape=internalStorage;whiteSpace=wrap;html=1;backgroundOutline=1;fontSize=17;align=left;verticalAlign=top;spacingTop=20;spacingLeft=25;fillColor=#b1ddf0;strokeColor=#10739e;rounded=1;glass=1;sketch=1;curveFitting=1;jiggle=2;shadow=1;" parent="1" vertex="1">
          <mxGeometry x="1020" y="645" width="150" height="80" as="geometry" />
        </mxCell>
        <mxCell id="7OKN_g6K1Okwr2jMo622-21" style="edgeStyle=orthogonalEdgeStyle;rounded=0;orthogonalLoop=1;jettySize=auto;html=1;startArrow=none;startFill=0;strokeWidth=3;fontSize=20;exitX=0;exitY=0.75;exitDx=0;exitDy=0;entryX=1;entryY=0.75;entryDx=0;entryDy=0;dashed=1;" parent="1" source="7OKN_g6K1Okwr2jMo622-11" target="7OKN_g6K1Okwr2jMo622-18" edge="1">
          <mxGeometry relative="1" as="geometry">
            <mxPoint x="950.0000000000005" y="410" as="sourcePoint" />
            <mxPoint x="900" y="590" as="targetPoint" />
          </mxGeometry>
        </mxCell>
        <mxCell id="7OKN_g6K1Okwr2jMo622-25" value="AccessBusinessCockpit" style="aspect=fixed;perimeter=ellipsePerimeter;html=1;align=center;shadow=0;dashed=0;spacingTop=3;image;image=img/lib/active_directory/database_cube.svg;fontSize=14;fontStyle=0" parent="1" vertex="1">
          <mxGeometry x="693.5" y="250" width="76.5" height="85" as="geometry" />
        </mxCell>
        <mxCell id="7OKN_g6K1Okwr2jMo622-26" value="API-Calls" style="aspect=fixed;perimeter=ellipsePerimeter;html=1;align=center;shadow=0;dashed=0;spacingTop=3;image;image=img/lib/active_directory/database_cube.svg;fontSize=14;" parent="1" vertex="1">
          <mxGeometry x="750" y="432.5" width="76.5" height="85" as="geometry" />
        </mxCell>
        <mxCell id="0wEEUMUTr-7TU5VQjdjk-2" value="" style="shape=flexArrow;endArrow=classic;html=1;rounded=0;fillColor=#dae8fc;gradientColor=#7ea6e0;strokeColor=#6c8ebf;startArrow=block;" parent="1" edge="1">
          <mxGeometry width="50" height="50" relative="1" as="geometry">
            <mxPoint x="500" y="478" as="sourcePoint" />
            <mxPoint x="720" y="478" as="targetPoint" />
          </mxGeometry>
        </mxCell>
        <mxCell id="0wEEUMUTr-7TU5VQjdjk-4" style="edgeStyle=orthogonalEdgeStyle;rounded=0;orthogonalLoop=1;jettySize=auto;html=1;startArrow=none;startFill=0;strokeColor=#FFFFFF;strokeWidth=5;" parent="1" edge="1">
          <mxGeometry relative="1" as="geometry">
            <mxPoint x="589.5" y="375" as="targetPoint" />
            <mxPoint x="589.5" y="335" as="sourcePoint" />
          </mxGeometry>
        </mxCell>
        <mxCell id="0wEEUMUTr-7TU5VQjdjk-6" value="responseHandling" style="aspect=fixed;perimeter=ellipsePerimeter;html=1;align=center;shadow=0;dashed=0;spacingTop=3;image;image=img/lib/active_directory/database_cube.svg;fontSize=14;" parent="1" vertex="1">
          <mxGeometry x="580" y="508" width="76.5" height="85" as="geometry" />
        </mxCell>
        <mxCell id="7OKN_g6K1Okwr2jMo622-16" value="VUE-Pages" style="aspect=fixed;perimeter=ellipsePerimeter;html=1;align=center;shadow=0;dashed=0;spacingTop=3;image;image=img/lib/active_directory/tablet_pc.svg;fontSize=15;" parent="1" vertex="1">
          <mxGeometry x="360" y="415" width="87.6" height="120" as="geometry" />
        </mxCell>
        <mxCell id="0wEEUMUTr-7TU5VQjdjk-7" value="&lt;span style=&quot;background-color: rgb(255, 255, 255);&quot;&gt;Pinia Store&lt;/span&gt;" style="outlineConnect=0;dashed=0;verticalLabelPosition=bottom;verticalAlign=top;align=center;html=1;shape=mxgraph.aws3.bucket_with_objects;fillColor=#dae8fc;strokeColor=#6c8ebf;gradientColor=#7ea6e0;shadow=1;" parent="1" vertex="1">
          <mxGeometry x="743" y="819" width="72" height="71" as="geometry" />
        </mxCell>
        <mxCell id="0wEEUMUTr-7TU5VQjdjk-8" value="&lt;span style=&quot;background-color: rgb(255, 255, 255);&quot;&gt;Cookie-Consent&lt;/span&gt;" style="outlineConnect=0;dashed=0;verticalLabelPosition=bottom;verticalAlign=top;align=center;html=1;shape=mxgraph.aws3.bucket_with_objects;fillColor=#dae8fc;strokeColor=#6c8ebf;gradientColor=#7ea6e0;shadow=1;" parent="1" vertex="1">
          <mxGeometry x="542" y="980" width="72" height="71" as="geometry" />
        </mxCell>
        <mxCell id="0wEEUMUTr-7TU5VQjdjk-9" value="&lt;span style=&quot;background-color: rgb(255, 255, 255);&quot;&gt;Quasar Boot&lt;/span&gt;" style="outlineConnect=0;dashed=0;verticalLabelPosition=bottom;verticalAlign=top;align=center;html=1;shape=mxgraph.aws3.bucket_with_objects;fillColor=#dae8fc;strokeColor=#6c8ebf;gradientColor=#7ea6e0;shadow=1;" parent="1" vertex="1">
          <mxGeometry x="617.25" y="819" width="72" height="71" as="geometry" />
        </mxCell>
        <mxCell id="0wEEUMUTr-7TU5VQjdjk-10" value="&lt;span style=&quot;background-color: rgb(255, 255, 255);&quot;&gt;Globals&lt;/span&gt;" style="outlineConnect=0;dashed=0;verticalLabelPosition=bottom;verticalAlign=top;align=center;html=1;shape=mxgraph.aws3.bucket_with_objects;fillColor=#dae8fc;strokeColor=#6c8ebf;gradientColor=#7ea6e0;shadow=1;" parent="1" vertex="1">
          <mxGeometry x="739" y="980" width="72" height="71" as="geometry" />
        </mxCell>
        <mxCell id="0wEEUMUTr-7TU5VQjdjk-11" value="&lt;span style=&quot;background-color: rgb(255, 255, 255);&quot;&gt;Layout / Components&lt;/span&gt;" style="outlineConnect=0;dashed=0;verticalLabelPosition=bottom;verticalAlign=top;align=center;html=1;shape=mxgraph.aws3.bucket_with_objects;fillColor=#dae8fc;strokeColor=#6c8ebf;gradientColor=#7ea6e0;shadow=1;" parent="1" vertex="1">
          <mxGeometry x="437" y="700" width="72" height="71" as="geometry" />
        </mxCell>
        <mxCell id="0wEEUMUTr-7TU5VQjdjk-12" value="&lt;span style=&quot;background-color: rgb(255, 255, 255);&quot;&gt;APIs&lt;/span&gt;" style="outlineConnect=0;dashed=0;verticalLabelPosition=bottom;verticalAlign=top;align=center;html=1;shape=mxgraph.aws3.bucket_with_objects;fillColor=#dae8fc;strokeColor=#6c8ebf;gradientColor=#7ea6e0;shadow=1;" parent="1" vertex="1">
          <mxGeometry x="554" y="700" width="72" height="71" as="geometry" />
        </mxCell>
        <mxCell id="0wEEUMUTr-7TU5VQjdjk-13" value="&lt;span style=&quot;background-color: rgb(255, 255, 255);&quot;&gt;Response-&lt;br&gt;Handling&lt;/span&gt;" style="outlineConnect=0;dashed=0;verticalLabelPosition=bottom;verticalAlign=top;align=center;html=1;shape=mxgraph.aws3.bucket_with_objects;fillColor=#dae8fc;strokeColor=#6c8ebf;gradientColor=#7ea6e0;shadow=1;" parent="1" vertex="1">
          <mxGeometry x="351" y="980" width="72" height="71" as="geometry" />
        </mxCell>
        <mxCell id="0wEEUMUTr-7TU5VQjdjk-14" value="&lt;span style=&quot;background-color: rgb(255, 255, 255);&quot;&gt;Root-Files&lt;/span&gt;" style="outlineConnect=0;dashed=0;verticalLabelPosition=bottom;verticalAlign=top;align=center;html=1;shape=mxgraph.aws3.bucket_with_objects;fillColor=#dae8fc;strokeColor=#6c8ebf;gradientColor=#7ea6e0;shadow=1;" parent="1" vertex="1">
          <mxGeometry x="365" y="815.5" width="72" height="71" as="geometry" />
        </mxCell>
        <mxCell id="0wEEUMUTr-7TU5VQjdjk-15" value="&lt;span style=&quot;background-color: rgb(255, 255, 255);&quot;&gt;Pages&lt;/span&gt;" style="outlineConnect=0;dashed=0;verticalLabelPosition=bottom;verticalAlign=top;align=center;html=1;shape=mxgraph.aws3.bucket_with_objects;fillColor=#dae8fc;strokeColor=#6c8ebf;gradientColor=#7ea6e0;shadow=1;" parent="1" vertex="1">
          <mxGeometry x="678" y="700" width="72" height="71" as="geometry" />
        </mxCell>
        <mxCell id="0wEEUMUTr-7TU5VQjdjk-17" value="Controller" style="aspect=fixed;perimeter=ellipsePerimeter;html=1;align=center;shadow=0;dashed=0;spacingTop=3;image;image=img/lib/active_directory/database_cube.svg;fontSize=14;" parent="1" vertex="1">
          <mxGeometry x="1540" y="456.75" width="76.5" height="85" as="geometry" />
        </mxCell>
        <mxCell id="0wEEUMUTr-7TU5VQjdjk-18" value="" style="shape=flexArrow;endArrow=classic;html=1;rounded=0;fillColor=#dae8fc;gradientColor=#7ea6e0;strokeColor=#6c8ebf;startArrow=block;" parent="1" edge="1">
          <mxGeometry width="50" height="50" relative="1" as="geometry">
            <mxPoint x="1630" y="498.66" as="sourcePoint" />
            <mxPoint x="1850" y="498.66" as="targetPoint" />
          </mxGeometry>
        </mxCell>
        <mxCell id="0wEEUMUTr-7TU5VQjdjk-19" style="edgeStyle=orthogonalEdgeStyle;rounded=0;orthogonalLoop=1;jettySize=auto;html=1;startArrow=classic;startFill=1;strokeColor=#FFFFFF;strokeWidth=5;" parent="1" edge="1">
          <mxGeometry relative="1" as="geometry">
            <mxPoint x="1480" y="522" as="targetPoint" />
            <mxPoint x="1380" y="522" as="sourcePoint" />
            <Array as="points">
              <mxPoint x="1420" y="522" />
              <mxPoint x="1420" y="522" />
            </Array>
          </mxGeometry>
        </mxCell>
        <mxCell id="7OKN_g6K1Okwr2jMo622-5" value="Model" style="aspect=fixed;perimeter=ellipsePerimeter;html=1;align=center;shadow=0;dashed=0;spacingTop=3;image;image=img/lib/active_directory/databases.svg;" parent="1" vertex="1">
          <mxGeometry x="1870" y="449.25" width="102.04" height="100" as="geometry" />
        </mxCell>
        <mxCell id="0wEEUMUTr-7TU5VQjdjk-22" value="&lt;span style=&quot;background-color: rgb(255, 255, 255);&quot;&gt;Config&lt;br&gt;(Cors, Session, Mail, &lt;br&gt;filesystem, etc.)&amp;nbsp;&lt;br&gt;&lt;/span&gt;" style="outlineConnect=0;dashed=0;verticalLabelPosition=bottom;verticalAlign=top;align=center;html=1;shape=mxgraph.aws3.bucket_with_objects;fillColor=#dae8fc;strokeColor=#6c8ebf;gradientColor=#7ea6e0;shadow=1;" parent="1" vertex="1">
          <mxGeometry x="1468" y="890" width="72" height="71" as="geometry" />
        </mxCell>
        <mxCell id="0wEEUMUTr-7TU5VQjdjk-25" value="&lt;span style=&quot;background-color: rgb(255, 255, 255);&quot;&gt;Database&lt;/span&gt;" style="outlineConnect=0;dashed=0;verticalLabelPosition=bottom;verticalAlign=top;align=center;html=1;shape=mxgraph.aws3.bucket_with_objects;fillColor=#dae8fc;strokeColor=#6c8ebf;gradientColor=#7ea6e0;shadow=1;" parent="1" vertex="1">
          <mxGeometry x="1900.04" y="744.5" width="72" height="71" as="geometry" />
        </mxCell>
        <mxCell id="0wEEUMUTr-7TU5VQjdjk-27" value="&lt;span style=&quot;background-color: rgb(255, 255, 255);&quot;&gt;Ressource/Views&lt;br&gt;(unused)&lt;br&gt;&lt;/span&gt;" style="outlineConnect=0;dashed=0;verticalLabelPosition=bottom;verticalAlign=top;align=center;html=1;shape=mxgraph.aws3.bucket_with_objects;fillColor=#dae8fc;strokeColor=#6c8ebf;gradientColor=#7ea6e0;shadow=1;" parent="1" vertex="1">
          <mxGeometry x="1760" y="890" width="72" height="71" as="geometry" />
        </mxCell>
        <mxCell id="0wEEUMUTr-7TU5VQjdjk-30" value="&lt;b&gt;App&lt;/b&gt;" style="rounded=1;whiteSpace=wrap;html=1;verticalAlign=top;spacing=10;connectable=1;sketch=1;curveFitting=1;jiggle=2;shadow=1;glass=1;fillColor=none;fontColor=#FFFFFF;strokeColor=#FFFFFF;" parent="1" vertex="1">
          <mxGeometry x="1405.45" y="712.5" width="720" height="160" as="geometry" />
        </mxCell>
        <mxCell id="0wEEUMUTr-7TU5VQjdjk-20" value="&lt;span style=&quot;background-color: rgb(255, 255, 255);&quot;&gt;Controllers&lt;/span&gt;" style="outlineConnect=0;dashed=0;verticalLabelPosition=bottom;verticalAlign=top;align=center;html=1;shape=mxgraph.aws3.bucket_with_objects;fillColor=#dae8fc;strokeColor=#6c8ebf;gradientColor=#7ea6e0;shadow=1;" parent="1" vertex="1">
          <mxGeometry x="1438.32" y="744.5" width="72" height="71" as="geometry" />
        </mxCell>
        <mxCell id="0wEEUMUTr-7TU5VQjdjk-24" value="&lt;span style=&quot;background-color: rgb(255, 255, 255);&quot;&gt;Collections&lt;/span&gt;" style="outlineConnect=0;dashed=0;verticalLabelPosition=bottom;verticalAlign=top;align=center;html=1;shape=mxgraph.aws3.bucket_with_objects;fillColor=#dae8fc;strokeColor=#6c8ebf;gradientColor=#7ea6e0;shadow=1;" parent="1" vertex="1">
          <mxGeometry x="1557.32" y="744.5" width="72" height="71" as="geometry" />
        </mxCell>
        <mxCell id="0wEEUMUTr-7TU5VQjdjk-26" value="&lt;span style=&quot;background-color: rgb(255, 255, 255);&quot;&gt;Models&lt;/span&gt;" style="outlineConnect=0;dashed=0;verticalLabelPosition=bottom;verticalAlign=top;align=center;html=1;shape=mxgraph.aws3.bucket_with_objects;fillColor=#dae8fc;strokeColor=#6c8ebf;gradientColor=#7ea6e0;shadow=1;" parent="1" vertex="1">
          <mxGeometry x="1780" y="744.5" width="72" height="71" as="geometry" />
        </mxCell>
        <mxCell id="0wEEUMUTr-7TU5VQjdjk-28" value="&lt;span style=&quot;background-color: rgb(255, 255, 255);&quot;&gt;Classes&lt;/span&gt;" style="outlineConnect=0;dashed=0;verticalLabelPosition=bottom;verticalAlign=top;align=center;html=1;shape=mxgraph.aws3.bucket_with_objects;fillColor=#dae8fc;strokeColor=#6c8ebf;gradientColor=#7ea6e0;shadow=1;" parent="1" vertex="1">
          <mxGeometry x="1660" y="744.5" width="72" height="71" as="geometry" />
        </mxCell>
        <mxCell id="0wEEUMUTr-7TU5VQjdjk-29" value="&lt;span style=&quot;background-color: rgb(255, 255, 255);&quot;&gt;Providers&lt;/span&gt;" style="outlineConnect=0;dashed=0;verticalLabelPosition=bottom;verticalAlign=top;align=center;html=1;shape=mxgraph.aws3.bucket_with_objects;fillColor=#dae8fc;strokeColor=#6c8ebf;gradientColor=#7ea6e0;shadow=1;" parent="1" vertex="1">
          <mxGeometry x="1610" y="886.5" width="72" height="71" as="geometry" />
        </mxCell>
        <mxCell id="0wEEUMUTr-7TU5VQjdjk-31" value="&lt;span style=&quot;background-color: rgb(255, 255, 255);&quot;&gt;API-&lt;br&gt;Routes&lt;/span&gt;" style="outlineConnect=0;dashed=0;verticalLabelPosition=bottom;verticalAlign=top;align=center;html=1;shape=mxgraph.aws3.bucket_with_objects;fillColor=#dae8fc;strokeColor=#6c8ebf;gradientColor=#7ea6e0;shadow=1;" parent="1" vertex="1">
          <mxGeometry x="1291.83" y="744.5" width="72" height="71" as="geometry" />
        </mxCell>
        <mxCell id="0wEEUMUTr-7TU5VQjdjk-32" value="Routes" style="aspect=fixed;perimeter=ellipsePerimeter;html=1;align=center;shadow=0;dashed=0;spacingTop=3;image;image=img/lib/active_directory/database_cube.svg;fontSize=14;" parent="1" vertex="1">
          <mxGeometry x="1257.93" y="530" width="76.5" height="85" as="geometry" />
        </mxCell>
        <mxCell id="0wEEUMUTr-7TU5VQjdjk-33" value="&lt;span style=&quot;background-color: rgb(255, 255, 255);&quot;&gt;Storage&lt;/span&gt;" style="outlineConnect=0;dashed=0;verticalLabelPosition=bottom;verticalAlign=top;align=center;html=1;shape=mxgraph.aws3.bucket_with_objects;fillColor=#dae8fc;strokeColor=#6c8ebf;gradientColor=#7ea6e0;shadow=1;" parent="1" vertex="1">
          <mxGeometry x="1890" y="890" width="72" height="71" as="geometry" />
        </mxCell>
        <mxCell id="0wEEUMUTr-7TU5VQjdjk-34" value="&lt;span style=&quot;background-color: rgb(255, 255, 255);&quot;&gt;Vendor&lt;/span&gt;" style="outlineConnect=0;dashed=0;verticalLabelPosition=bottom;verticalAlign=top;align=center;html=1;shape=mxgraph.aws3.bucket_with_objects;fillColor=#dae8fc;strokeColor=#6c8ebf;gradientColor=#7ea6e0;shadow=1;" parent="1" vertex="1">
          <mxGeometry x="2020" y="890" width="72" height="71" as="geometry" />
        </mxCell>
        <mxCell id="0wEEUMUTr-7TU5VQjdjk-35" value="&lt;span style=&quot;background-color: rgb(255, 255, 255);&quot;&gt;Node_Modules&lt;/span&gt;" style="outlineConnect=0;dashed=0;verticalLabelPosition=bottom;verticalAlign=top;align=center;html=1;shape=mxgraph.aws3.bucket_with_objects;fillColor=#dae8fc;strokeColor=#6c8ebf;gradientColor=#7ea6e0;shadow=1;" parent="1" vertex="1">
          <mxGeometry x="487" y="819" width="72" height="71" as="geometry" />
        </mxCell>
        <mxCell id="0wEEUMUTr-7TU5VQjdjk-36" value="Laravel Passport&lt;br&gt;OAUTH 2.0" style="aspect=fixed;perimeter=ellipsePerimeter;html=1;align=center;shadow=0;dashed=0;spacingTop=3;image;image=img/lib/active_directory/printer.svg;fontSize=14;fontColor=#000000;" parent="1" vertex="1">
          <mxGeometry x="1248.4499999999998" y="280" width="95.45" height="63" as="geometry" />
        </mxCell>
        <mxCell id="0wEEUMUTr-7TU5VQjdjk-37" value="&lt;span style=&quot;background-color: rgb(255, 255, 255);&quot;&gt;Root-Files&lt;/span&gt;" style="outlineConnect=0;dashed=0;verticalLabelPosition=bottom;verticalAlign=top;align=center;html=1;shape=mxgraph.aws3.bucket_with_objects;fillColor=#dae8fc;strokeColor=#6c8ebf;gradientColor=#7ea6e0;shadow=1;" parent="1" vertex="1">
          <mxGeometry x="1291.83" y="890" width="72" height="71" as="geometry" />
        </mxCell>
        <mxCell id="bWg5gaZhqFW1bSHL5vqw-1" value="&lt;span style=&quot;background-color: rgb(255, 255, 255);&quot;&gt;Routes&lt;/span&gt;" style="outlineConnect=0;dashed=0;verticalLabelPosition=bottom;verticalAlign=top;align=center;html=1;shape=mxgraph.aws3.bucket_with_objects;fillColor=#dae8fc;strokeColor=#6c8ebf;gradientColor=#7ea6e0;shadow=1;" parent="1" vertex="1">
          <mxGeometry x="800" y="700" width="72" height="71" as="geometry" />
        </mxCell>
        <mxCell id="0wEEUMUTr-7TU5VQjdjk-23" value="&lt;span style=&quot;background-color: rgb(255, 255, 255);&quot;&gt;Middleware&lt;br&gt;&lt;/span&gt;" style="outlineConnect=0;dashed=0;verticalLabelPosition=bottom;verticalAlign=top;align=center;html=1;shape=mxgraph.aws3.bucket_with_objects;fillColor=#dae8fc;strokeColor=#6c8ebf;gradientColor=#7ea6e0;shadow=1;" parent="1" vertex="1">
          <mxGeometry x="2020" y="744.5" width="72" height="71" as="geometry" />
        </mxCell>
        <mxCell id="bWg5gaZhqFW1bSHL5vqw-2" value="PSQL" style="aspect=fixed;perimeter=ellipsePerimeter;html=1;align=center;shadow=0;dashed=0;spacingTop=3;image;image=img/lib/active_directory/printer.svg;fontSize=14;fontColor=#000000;" parent="1" vertex="1">
          <mxGeometry x="1930" y="335" width="95.45" height="63" as="geometry" />
        </mxCell>
      </root>
    </mxGraphModel>
  </diagram>
  <diagram id="XJCbWYBPCxz7j_XhVARi" name="Product Definitions">
    <mxGraphModel dx="3217" dy="1450" grid="1" gridSize="10" guides="1" tooltips="1" connect="1" arrows="1" fold="1" page="1" pageScale="1" pageWidth="827" pageHeight="1169" math="0" shadow="0">
      <root>
        <mxCell id="0" />
        <mxCell id="1" parent="0" />
        <mxCell id="pHoxotaa_EtgP9xHlRIr-1" value="Great! Now that we’re discussing requirements for promoting functional units through a web interface, let’s focus on what attributes are most important to present relevant information clearly and effectively. The goal is to ensure that users can easily understand how each functional unit operates, what rewards they offer, and how to collaborate with or participate in these units.&#xa;&#xa;&#xa;### Key Attributes for the Web Interface to Promote Functional Units&#xa;&#xa;&#xa;#### 1. **Functional Unit Overview**&#xa;Each functional unit should have a detailed but clear overview that provides context about its purpose, the roles within it, and its significance within the organization.&#xa;&#xa;&#xa;- **Attributes**:&#xa;  - **Unit Name**: The name of the functional unit (e.g., **Engineering**, **Product Management**).&#xa;  - **Description**: A concise explanation of the unit’s role within the organization (e.g., &quot;The Engineering department focuses on developing scalable web applications and backend services.&quot;).&#xa;  - **Core Responsibilities**: A list of key tasks the unit is responsible for (e.g., &quot;Building new features, maintaining infrastructure, ensuring system reliability&quot;).&#xa;  - **Team Lead / Head of Department**: The individual responsible for the functional unit (e.g., **VP of Engineering**), with their bio and contact information.&#xa;&#xa;&#xa;#### 2. **Available Rewards**&#xa;Clear information about the rewards available within the unit, including how users can acquire them and what benefits they provide.&#xa;&#xa;&#xa;- **Attributes**:&#xa;  - **Reward Categories**: Categories such as **Certifications**, **Training Programs**, and **Promotions** available for that functional unit.&#xa;  - **Reward Descriptions**: Detailed descriptions of each reward (e.g., &quot;Web Development Certification: A recognized certificate for full-stack web development&quot;).&#xa;  - **Eligibility Criteria**: Requirements that users need to fulfill to apply for or earn a reward (e.g., &quot;Completion of intermediate Web Development course&quot;).&#xa;  - **Progress Tracking**: A feature that shows a user’s progress toward obtaining the reward (e.g., &quot;Completed 3/5 courses for Web Development Certification&quot;).&#xa;&#xa;&#xa;#### 3. **Collaboration Opportunities**&#xa;Users should be able to see how they can collaborate with or participate in the functional unit’s activities.&#xa;&#xa;&#xa;- **Attributes**:&#xa;  - **Available Roles &amp; Collaborations**: A list of roles that are open for collaboration or application (e.g., **Java Backend Engineer**, **DevOps Specialist**).&#xa;  - **Skill Requirements**: The skills or experience needed for each role (e.g., &quot;Proficiency in Java, experience with cloud-based systems&quot;).&#xa;  - **Application Process**: Clear steps on how users can apply or request participation in the functional unit (e.g., &quot;Submit your portfolio and attend an interview with the engineering team&quot;).&#xa;  - **Open Projects**: Opportunities for users to join ongoing or upcoming projects within the unit (e.g., &quot;Join the AI development team to work on a new machine learning feature&quot;).&#xa;&#xa;&#xa;#### 4. **Unit-Specific Training and Resources**&#xa;The web interface should highlight relevant training and learning opportunities available for each functional unit.&#xa;&#xa;&#xa;- **Attributes**:&#xa;  - **Training Programs**: A list of training courses that are directly relevant to the unit (e.g., **Cloud Administration for IT Ops**, **Agile Product Development** for Product Managers).&#xa;  - **Resources**: Learning materials such as guides, articles, or recommended reading (e.g., &quot;Access to Java programming tutorials or webinars on DevOps automation&quot;).&#xa;  - **Mentorship Opportunities**: The possibility for users to engage with senior team members for mentorship or coaching.&#xa;&#xa;&#xa;#### 5. **Key Metrics and Performance Indicators**&#xa;To help users and viewers understand the impact and performance of the functional unit, it’s important to display relevant metrics.&#xa;&#xa;&#xa;- **Attributes**:&#xa;  - **Key Performance Indicators (KPIs)**: Metrics that show how the unit is performing in its key areas (e.g., **number of completed projects**, **system uptime for IT Operations**, **customer satisfaction for Customer Support**).&#xa;  - **Success Stories**: Case studies or examples of successful collaborations or projects completed by the functional unit (e.g., &quot;Successfully deployed a new backend architecture that improved system performance by 30%&quot;).&#xa;  - **User Feedback / Testimonials**: Reviews or comments from users who have participated in or collaborated with the functional unit (e.g., &quot;I completed the Web Development program, and it helped me land a Senior Engineer position&quot;).&#xa;&#xa;&#xa;#### 6. **Integration with User Profiles**&#xa;Allowing users to link their profiles with functional units for rewards tracking and participation ensures a personalized experience.&#xa;&#xa;&#xa;- **Attributes**:&#xa;  - **User Progress**: A section that shows how far the user has progressed within a particular unit (e.g., &quot;Completed 60% of DevOps training program&quot;).&#xa;  - **Achievements**: A list of rewards, certifications, and roles the user has acquired within the functional unit (e.g., &quot;Certified in Java Backend Development&quot;).&#xa;  - **User Role**: The user’s current role or position in collaboration with the functional unit (e.g., **Junior Developer** in the Engineering unit).&#xa;&#xa;&#xa;#### 7. **Communication Channels**&#xa;Ensure that users can easily communicate with the functional unit’s team members and leaders.&#xa;&#xa;&#xa;- **Attributes**:&#xa;  - **Contact Information**: Details on how to contact the unit’s team leader or manager (e.g., email or Slack integration).&#xa;  - **Request Support**: A feature for users to request support or ask questions regarding their participation in the functional unit or rewards program.&#xa;  - **Scheduled Meetings / Events**: Information about any scheduled team meetings, webinars, or Q&amp;A sessions related to the functional unit.&#xa;&#xa;&#xa;---&#xa;&#xa;&#xa;### User Interface (UI) Example for Promoting Functional Units&#xa;&#xa;&#xa;Let’s briefly describe what the **UI** might look like based on the attributes outlined:&#xa;&#xa;&#xa;1. **Functional Unit Landing Page**:&#xa;   - A **dashboard** that lists all the functional units (Engineering, Product Management, IT Ops, etc.).&#xa;   - Clicking on a unit brings the user to a **dedicated page** with the unit’s overview, team members, available rewards, and current projects.&#xa;&#xa;&#xa;2. **Reward Details**:&#xa;   - Each functional unit page contains a **&quot;Rewards&quot; section** where users can browse available certifications, trainings, and career opportunities.&#xa;   - A **&quot;Get Started&quot; button** for users to apply or begin working towards a specific reward.&#xa;&#xa;&#xa;3. **Collaboration Opportunities**:&#xa;   - A **&quot;Join Us&quot; button** linked to open projects or roles, allowing users to see the skills required and apply.&#xa;   - A **&quot;Current Projects&quot; list** with descriptions and a status (open for collaboration or closed).&#xa;&#xa;&#xa;4. **User Profile Integration**:&#xa;   - Users can access their **personal dashboard** to see progress on their chosen functional units, track rewards, and view past achievements.&#xa;   - A **&quot;My Rewards&quot; tab** shows the rewards they’ve earned or are working towards.&#xa;&#xa;&#xa;5. **Metrics Display**:&#xa;   - Key performance metrics are displayed using **visuals like charts** and **progress bars** to highlight unit performance.&#xa;   - A **&quot;Success Stories&quot; section** to promote the functional unit’s achievements with testimonials.&#xa;&#xa;&#xa;---&#xa;&#xa;&#xa;### Important Considerations for Implementation&#xa;&#xa;&#xa;1. **User-Friendly Design**: Ensure the interface is easy to navigate, with clear calls to action (CTAs) for viewing rewards, collaborating, or learning more about the unit.&#xa;   &#xa;2. **Personalization**: Tailor the experience to the user’s role or interests. For example, a **developer** sees relevant opportunities in **Engineering**, while a **marketer** is shown rewards in the **Marketing** unit.&#xa;&#xa;&#xa;3. **Real-Time Updates**: Keep collaboration opportunities, rewards, and project statuses updated in real-time to ensure users have the most current information.&#xa;&#xa;&#xa;4. **Security and Permissions**: Ensure proper permissions and security are in place so that sensitive information (such as performance metrics or user profiles) is only accessible to authorized users.&#xa;&#xa;&#xa;---&#xa;&#xa;&#xa;### Next Steps&#xa;To refine this further, we could:&#xa;- Develop **specific user flows** to map how users will interact with different sections (e.g., from viewing rewards to applying for them).&#xa;- Identify the **technical requirements** for implementing these features (e.g., databases for tracking user progress, APIs for communication, etc.).&#xa;  &#xa;Would you like to dive deeper into any specific section or proceed with defining technical requirements and user flows?" style="text;whiteSpace=wrap;" vertex="1" parent="1">
          <mxGeometry x="-640" y="1530" width="560" height="2770" as="geometry" />
        </mxCell>
        <mxCell id="pHoxotaa_EtgP9xHlRIr-2" value="Functional Units" style="ellipse;whiteSpace=wrap;html=1;aspect=fixed;" vertex="1" parent="1">
          <mxGeometry x="230" y="1520" width="210" height="210" as="geometry" />
        </mxCell>
        <mxCell id="pHoxotaa_EtgP9xHlRIr-3" value="Label&lt;br&gt;String" style="ellipse;whiteSpace=wrap;html=1;aspect=fixed;" vertex="1" parent="1">
          <mxGeometry x="210" y="1500" width="90" height="90" as="geometry" />
        </mxCell>
        <mxCell id="pHoxotaa_EtgP9xHlRIr-4" value="Definitions&lt;br&gt;Text" style="ellipse;whiteSpace=wrap;html=1;aspect=fixed;" vertex="1" parent="1">
          <mxGeometry x="350" y="1480" width="90" height="90" as="geometry" />
        </mxCell>
        <mxCell id="pHoxotaa_EtgP9xHlRIr-5" value="Responsibilities&lt;br&gt;[Array]" style="ellipse;whiteSpace=wrap;html=1;aspect=fixed;" vertex="1" parent="1">
          <mxGeometry x="300" y="1670" width="90" height="90" as="geometry" />
        </mxCell>
        <mxCell id="pHoxotaa_EtgP9xHlRIr-6" value="Reward Categories&lt;br&gt;(Education, Job Experience,&lt;br&gt;Collaborations, Gigs etc.)" style="ellipse;whiteSpace=wrap;html=1;aspect=fixed;" vertex="1" parent="1">
          <mxGeometry x="230" y="1880" width="210" height="210" as="geometry" />
        </mxCell>
        <mxCell id="pHoxotaa_EtgP9xHlRIr-7" value="Label&lt;br&gt;String" style="ellipse;whiteSpace=wrap;html=1;aspect=fixed;" vertex="1" parent="1">
          <mxGeometry x="220" y="2030" width="90" height="90" as="geometry" />
        </mxCell>
        <mxCell id="pHoxotaa_EtgP9xHlRIr-8" value="Definitions&lt;br&gt;Text" style="ellipse;whiteSpace=wrap;html=1;aspect=fixed;" vertex="1" parent="1">
          <mxGeometry x="190" y="1889" width="90" height="90" as="geometry" />
        </mxCell>
        <mxCell id="pHoxotaa_EtgP9xHlRIr-9" value="Feature Token&lt;br&gt;String" style="ellipse;whiteSpace=wrap;html=1;aspect=fixed;" vertex="1" parent="1">
          <mxGeometry x="370" y="2030" width="90" height="90" as="geometry" />
        </mxCell>
        <mxCell id="pHoxotaa_EtgP9xHlRIr-10" value="Rewards" style="ellipse;whiteSpace=wrap;html=1;aspect=fixed;" vertex="1" parent="1">
          <mxGeometry x="425" y="1720" width="210" height="210" as="geometry" />
        </mxCell>
        <mxCell id="pHoxotaa_EtgP9xHlRIr-11" value="Collaborations" style="ellipse;whiteSpace=wrap;html=1;aspect=fixed;" vertex="1" parent="1">
          <mxGeometry x="240" y="2290" width="210" height="210" as="geometry" />
        </mxCell>
        <mxCell id="pHoxotaa_EtgP9xHlRIr-16" value="Title&lt;br&gt;String" style="ellipse;whiteSpace=wrap;html=1;aspect=fixed;" vertex="1" parent="1">
          <mxGeometry x="220" y="2180" width="90" height="90" as="geometry" />
        </mxCell>
        <mxCell id="pHoxotaa_EtgP9xHlRIr-17" value="Collaborations" style="ellipse;whiteSpace=wrap;html=1;aspect=fixed;" vertex="1" parent="1">
          <mxGeometry x="240" y="3290" width="160" height="160" as="geometry" />
        </mxCell>
        <mxCell id="pHoxotaa_EtgP9xHlRIr-18" value="Rewards" style="ellipse;whiteSpace=wrap;html=1;aspect=fixed;" vertex="1" parent="1">
          <mxGeometry x="175" y="2870" width="160" height="160" as="geometry" />
        </mxCell>
        <mxCell id="pHoxotaa_EtgP9xHlRIr-19" value="Rewards" style="ellipse;whiteSpace=wrap;html=1;aspect=fixed;" vertex="1" parent="1">
          <mxGeometry x="265" y="3090" width="160" height="160" as="geometry" />
        </mxCell>
        <mxCell id="pHoxotaa_EtgP9xHlRIr-20" value="" style="sketch=0;html=1;aspect=fixed;strokeColor=none;shadow=0;align=center;fillColor=#2D9C5E;verticalAlign=top;labelPosition=center;verticalLabelPosition=bottom;shape=mxgraph.gcp2.check" vertex="1" parent="1">
          <mxGeometry x="-740" y="1860" width="100" height="80" as="geometry" />
        </mxCell>
        <mxCell id="pHoxotaa_EtgP9xHlRIr-21" value="" style="sketch=0;html=1;aspect=fixed;strokeColor=none;shadow=0;align=center;fillColor=#2D9C5E;verticalAlign=top;labelPosition=center;verticalLabelPosition=bottom;shape=mxgraph.gcp2.check" vertex="1" parent="1">
          <mxGeometry x="-750" y="2100" width="100" height="80" as="geometry" />
        </mxCell>
        <mxCell id="pHoxotaa_EtgP9xHlRIr-22" value="Collaboration - Jobs" style="swimlane;fontStyle=0;childLayout=stackLayout;horizontal=1;startSize=30;horizontalStack=0;resizeParent=1;resizeParentMax=0;resizeLast=0;collapsible=1;marginBottom=0;whiteSpace=wrap;html=1;" vertex="1" parent="1">
          <mxGeometry x="770" y="1480" width="270" height="800" as="geometry" />
        </mxCell>
        <mxCell id="pHoxotaa_EtgP9xHlRIr-38" value="Reward: Work Experience" style="text;strokeColor=none;fillColor=none;align=right;verticalAlign=middle;spacingLeft=4;spacingRight=4;overflow=hidden;points=[[0,0.5],[1,0.5]];portConstraint=eastwest;rotatable=0;whiteSpace=wrap;html=1;" vertex="1" parent="pHoxotaa_EtgP9xHlRIr-22">
          <mxGeometry y="30" width="270" height="30" as="geometry" />
        </mxCell>
        <mxCell id="pHoxotaa_EtgP9xHlRIr-23" value="Position: Softwareengineer*" style="text;strokeColor=none;fillColor=none;align=right;verticalAlign=middle;spacingLeft=4;spacingRight=4;overflow=hidden;points=[[0,0.5],[1,0.5]];portConstraint=eastwest;rotatable=0;whiteSpace=wrap;html=1;" vertex="1" parent="pHoxotaa_EtgP9xHlRIr-22">
          <mxGeometry y="60" width="270" height="30" as="geometry" />
        </mxCell>
        <mxCell id="pHoxotaa_EtgP9xHlRIr-24" value="Java Backend developer" style="text;strokeColor=none;fillColor=none;align=left;verticalAlign=middle;spacingLeft=4;spacingRight=4;overflow=hidden;points=[[0,0.5],[1,0.5]];portConstraint=eastwest;rotatable=0;whiteSpace=wrap;html=1;fontStyle=1;fontSize=17;" vertex="1" parent="pHoxotaa_EtgP9xHlRIr-22">
          <mxGeometry y="90" width="270" height="30" as="geometry" />
        </mxCell>
        <mxCell id="pHoxotaa_EtgP9xHlRIr-25" value="&lt;b&gt;About&lt;/b&gt;: [Your Company Name] is a leading [industry] company dedicated to delivering innovative solutions and exceptional service. We are looking for a talented Java Backend Developer to join our dynamic team." style="text;strokeColor=none;fillColor=none;align=left;verticalAlign=middle;spacingLeft=4;spacingRight=4;overflow=hidden;points=[[0,0.5],[1,0.5]];portConstraint=eastwest;rotatable=0;whiteSpace=wrap;html=1;" vertex="1" parent="pHoxotaa_EtgP9xHlRIr-22">
          <mxGeometry y="120" width="270" height="100" as="geometry" />
        </mxCell>
        <mxCell id="pHoxotaa_EtgP9xHlRIr-26" value="&lt;b&gt;Tasks &amp;amp; Responsibilities:&lt;/b&gt;&lt;br&gt;&lt;ul style=&quot;&quot;&gt;&lt;li style=&quot;&quot;&gt;Design, develop, and maintain backend services and APIs using Java and Spring.&lt;/li&gt;&lt;li style=&quot;&quot;&gt;Collaborate with front-end developers and other team members to integrate user-facing elements with server-side logic.&lt;/li&gt;&lt;li style=&quot;&quot;&gt;Implement and maintain microservices architectures that are scalable, reliable, and efficient.&lt;/li&gt;&lt;/ul&gt;" style="text;strokeColor=none;fillColor=none;align=left;verticalAlign=middle;spacingLeft=4;spacingRight=4;overflow=hidden;points=[[0,0.5],[1,0.5]];portConstraint=eastwest;rotatable=0;whiteSpace=wrap;html=1;" vertex="1" parent="pHoxotaa_EtgP9xHlRIr-22">
          <mxGeometry y="220" width="270" height="200" as="geometry" />
        </mxCell>
        <mxCell id="pHoxotaa_EtgP9xHlRIr-27" value="&lt;b&gt;Desired skills:&lt;/b&gt;&lt;br&gt;&lt;ul style=&quot;&quot;&gt;&lt;li&gt;Proven experience as a Java Backend Developer or similar role.&lt;/li&gt;&lt;li&gt;Strong proficiency in Java and frameworks such as Spring or Spring Boot.&lt;/li&gt;&lt;li&gt;Experience with microservices architecture and RESTful APIs.&lt;/li&gt;&lt;li&gt;Familiarity with database technologies like SQL, NoSQL, and ORM frameworks.&lt;/li&gt;&lt;/ul&gt;" style="text;strokeColor=none;fillColor=none;align=left;verticalAlign=middle;spacingLeft=4;spacingRight=4;overflow=hidden;points=[[0,0.5],[1,0.5]];portConstraint=eastwest;rotatable=0;whiteSpace=wrap;html=1;" vertex="1" parent="pHoxotaa_EtgP9xHlRIr-22">
          <mxGeometry y="420" width="270" height="200" as="geometry" />
        </mxCell>
        <mxCell id="pHoxotaa_EtgP9xHlRIr-28" value="&lt;b&gt;Additionals:&lt;/b&gt;&lt;br&gt;&lt;div style=&quot;&quot;&gt;Competitive salary and performance bonuses.&lt;/div&gt;&lt;div style=&quot;&quot;&gt;Health, dental, and vision insurance.&amp;nbsp;&lt;span style=&quot;background-color: initial;&quot;&gt;Flexible working hours and remote work options.&lt;/span&gt;&lt;/div&gt;" style="text;strokeColor=none;fillColor=none;align=left;verticalAlign=middle;spacingLeft=4;spacingRight=4;overflow=hidden;points=[[0,0.5],[1,0.5]];portConstraint=eastwest;rotatable=0;whiteSpace=wrap;html=1;" vertex="1" parent="pHoxotaa_EtgP9xHlRIr-22">
          <mxGeometry y="620" width="270" height="100" as="geometry" />
        </mxCell>
        <mxCell id="pHoxotaa_EtgP9xHlRIr-29" value="&lt;b&gt;Contact us:&lt;/b&gt;&lt;br&gt;&lt;div style=&quot;&quot;&gt;Carlson Patrick&lt;/div&gt;&lt;div style=&quot;&quot;&gt;hello@gigup.ch&lt;/div&gt;&lt;div style=&quot;&quot;&gt;+41 78 788 78 78&lt;/div&gt;" style="text;strokeColor=none;fillColor=none;align=left;verticalAlign=middle;spacingLeft=4;spacingRight=4;overflow=hidden;points=[[0,0.5],[1,0.5]];portConstraint=eastwest;rotatable=0;whiteSpace=wrap;html=1;" vertex="1" parent="pHoxotaa_EtgP9xHlRIr-22">
          <mxGeometry y="720" width="270" height="80" as="geometry" />
        </mxCell>
        <mxCell id="pHoxotaa_EtgP9xHlRIr-57" value="{&#xa;   &quot;Reward&quot;: &quot;Job Position&quot;,  &#xa;&quot;Position&quot;: &quot;Full-Stack Webdeveloper&quot;,&#xa;  &quot;AboutUs&quot;: &quot;We are a leading tech company specializing in innovative web solutions. Our team is dedicated to creating high-quality, user-friendly applications that meet the needs of our diverse clientele.&quot;,&#xa;  &quot;TasksAndResponsibilities&quot;: [&#xa;    &quot;Develop and maintain web applications using modern frameworks and technologies.&quot;,&#xa;    &quot;Collaborate with designers and product managers to implement user-friendly features.&quot;,&#xa;    &quot;Ensure the performance, quality, and responsiveness of applications.&quot;,&#xa;    &quot;Write clean, maintainable, and efficient code.&quot;,&#xa;    &quot;Troubleshoot and debug issues across the stack.&quot;,&#xa;    &quot;Participate in code reviews and contribute to team knowledge sharing.&quot;&#xa;  ],&#xa;  &quot;DesiredQualifications&quot;: [&#xa;    &quot;Proven experience as a Full-Stack Webdeveloper or similar role.&quot;,&#xa;    &quot;Strong proficiency in front-end technologies (e.g., HTML, CSS, JavaScript) and back-end technologies (e.g., Node.js, Python, Java).&quot;,&#xa;    &quot;Experience with modern frameworks and libraries (e.g., React, Angular, Vue).&quot;,&#xa;    &quot;Familiarity with database technologies (e.g., SQL, NoSQL).&quot;,&#xa;    &quot;Knowledge of version control systems (e.g., Git).&quot;,&#xa;    &quot;Excellent problem-solving skills and attention to detail.&quot;,&#xa;    &quot;Strong communication and teamwork abilities.&quot;&#xa;  ],&#xa;  &quot;Additionals&quot;: &quot;Experience with cloud platforms (e.g., AWS, Azure) and containerization technologies (e.g., Docker, Kubernetes) is a plus.&quot;,&#xa;  &quot;ContactUs&quot;: &quot;For more information, please contact us at: Email: careers@techcompany.com Phone: +1 (555) 123 4567&quot;&#xa;}" style="text;whiteSpace=wrap;" vertex="1" parent="1">
          <mxGeometry x="1810" y="1470" width="560" height="430" as="geometry" />
        </mxCell>
        <mxCell id="pHoxotaa_EtgP9xHlRIr-58" value="{&#xa;  &quot;Reward&quot;: &quot;Academic Qualification&quot;,  &#xa;&quot;Position&quot;: &quot;Business Administration&quot;,&#xa;  &quot;AboutUs&quot;: &quot;Our institution is dedicated to providing top-tier education in business administration, preparing students to become leaders in the corporate world. We offer a comprehensive curriculum that covers all aspects of business management and administration.&quot;,&#xa;  &quot;TasksAndResponsibilities&quot;: [&#xa;    &quot;Develop and deliver lectures on business administration topics such as management, finance, marketing, and operations.&quot;,&#xa;    &quot;Create and update course materials, including syllabi, assignments, and exams.&quot;,&#xa;    &quot;Advise and mentor students on academic and career goals.&quot;,&#xa;    &quot;Conduct research in the field of business administration and publish findings in academic journals.&quot;,&#xa;    &quot;Participate in departmental meetings and contribute to curriculum development.&quot;,&#xa;    &quot;Engage with the business community to stay updated on industry trends and incorporate real-world examples into teaching.&quot;&#xa;  ],&#xa;  &quot;DesiredQualifications&quot;: [&#xa;    &quot;Ph.D. in Business Administration or a related field.&quot;,&#xa;    &quot;Proven experience in teaching at the university level.&quot;,&#xa;    &quot;Strong research background with a record of publications in reputable journals.&quot;,&#xa;    &quot;Excellent communication and presentation skills.&quot;,&#xa;    &quot;Ability to work collaboratively with colleagues and students.&quot;,&#xa;    &quot;Commitment to fostering a positive and inclusive learning environment.&quot;&#xa;  ],&#xa;  &quot;Additionals&quot;: &quot;Experience with online teaching platforms and educational technology is a plus.&quot;,&#xa;  &quot;ContactUs&quot;: &quot;For more information, please contact us at: Email: academic@yourinstitution.edu Phone: +1 (555) 123 4567&quot;&#xa;}" style="text;whiteSpace=wrap;" vertex="1" parent="1">
          <mxGeometry x="1820" y="1985" width="560" height="430" as="geometry" />
        </mxCell>
        <mxCell id="pHoxotaa_EtgP9xHlRIr-59" value="{&#xa;  &quot;Reward&quot;: &quot;Services&quot;,  &#xa;&quot;Position&quot;: &quot;IT Consulting&quot;,&#xa;  &quot;AboutUs&quot;: &quot;We are a leading IT consulting firm dedicated to helping businesses optimize their technology infrastructure and achieve their strategic goals. Our team of experts provides comprehensive IT solutions tailored to meet the unique needs of each client.&quot;,&#xa;  &quot;TasksAndResponsibilities&quot;: [&#xa;    &quot;Analyze and diagnose a company&#39;s IT infrastructure to identify areas for improvement.&quot;,&#xa;    &quot;Develop and implement technology solutions that align with business objectives.&quot;,&#xa;    &quot;Provide strategic advice on IT systems and technology investments.&quot;,&#xa;    &quot;Troubleshoot technical issues and provide ongoing support to clients.&quot;,&#xa;    &quot;Collaborate with clients to understand their business needs and tailor solutions accordingly.&quot;,&#xa;    &quot;Stay updated with the latest industry trends and technologies to provide cutting-edge solutions.&quot;&#xa;  ],&#xa;  &quot;DesiredQualifications&quot;: [&#xa;    &quot;Bachelor’s degree in Computer Science, Information Technology, or a related field.&quot;,&#xa;    &quot;Proven experience as an IT Consultant or similar role.&quot;,&#xa;    &quot;Strong knowledge of IT systems, networks, and software.&quot;,&#xa;    &quot;Excellent problem-solving and analytical skills.&quot;,&#xa;    &quot;Strong communication and interpersonal skills.&quot;,&#xa;    &quot;Ability to manage multiple projects and prioritize tasks effectively.&quot;&#xa;  ],&#xa;  &quot;Additionals&quot;: &quot;Experience with cloud platforms (e.g., AWS, Azure) and cybersecurity solutions is a plus.&quot;,&#xa;  &quot;ContactUs&quot;: &quot;For more information, please contact us at: Email: consulting@yourcompany.com Phone: +1 (555) 123 4567&quot;&#xa;}" style="text;whiteSpace=wrap;" vertex="1" parent="1">
          <mxGeometry x="2480" y="1470" width="560" height="410" as="geometry" />
        </mxCell>
        <mxCell id="pHoxotaa_EtgP9xHlRIr-60" value="{&#xa;  &quot;Reward&quot;: &quot;Training&quot;,&#xa; &quot;Position&quot;: &quot;Project Management&quot;,&#xa;  &quot;AboutUs&quot;: &quot;We are a premier training organization dedicated to equipping professionals with the skills and knowledge needed to excel in project management. Our comprehensive training programs are designed to help individuals and organizations achieve their project goals efficiently and effectively.&quot;,&#xa;  &quot;TasksAndResponsibilities&quot;: [&#xa;    &quot;Develop and deliver training sessions on project management principles, methodologies, and best practices.&quot;,&#xa;    &quot;Create and update training materials, including manuals, presentations, and case studies.&quot;,&#xa;    &quot;Assess the training needs of participants and tailor programs to meet those needs.&quot;,&#xa;    &quot;Facilitate interactive workshops and hands-on exercises to enhance learning outcomes.&quot;,&#xa;    &quot;Evaluate the effectiveness of training programs through feedback and assessments.&quot;,&#xa;    &quot;Stay updated with the latest trends and developments in project management to ensure training content is current and relevant.&quot;&#xa;  ],&#xa;  &quot;DesiredQualifications&quot;: [&#xa;    &quot;Bachelor’s degree in Business Administration, Project Management, or a related field.&quot;,&#xa;    &quot;Proven experience in project management and training roles.&quot;,&#xa;    &quot;Strong knowledge of project management methodologies (e.g., Agile, Scrum, Waterfall).&quot;,&#xa;    &quot;Excellent communication and presentation skills.&quot;,&#xa;    &quot;Ability to engage and motivate participants.&quot;,&#xa;    &quot;Strong organizational and time-management skills.&quot;&#xa;  ],&#xa;  &quot;Additionals&quot;: &quot;Certification in project management (e.g., PMP, PRINCE2) is a plus.&quot;,&#xa;  &quot;ContactUs&quot;: &quot;For more information, please contact us at: Email: training@yourorganization.com Phone: +1 (555) 123 4567&quot;&#xa;}" style="text;whiteSpace=wrap;" vertex="1" parent="1">
          <mxGeometry x="3140" y="1460" width="560" height="430" as="geometry" />
        </mxCell>
        <mxCell id="pHoxotaa_EtgP9xHlRIr-61" value="{&#xa;  &quot;Reward&quot;: &quot;Certification&quot;&#xa; &quot;Position&quot;: &quot;Requirements Engineering&quot;,&#xa;  &quot;AboutUs&quot;: &quot;We are a leading organization dedicated to advancing the field of requirements engineering. Our certification program is designed to recognize professionals who have demonstrated expertise and excellence in this critical area of software development.&quot;,&#xa;  &quot;TasksAndResponsibilities&quot;: [&#xa;    &quot;Analyze and document project requirements to ensure they meet the needs of stakeholders.&quot;,&#xa;    &quot;Collaborate with project managers and clients to identify project deliverables and timelines.&quot;,&#xa;    &quot;Develop detailed specifications and functional requirements for software projects.&quot;,&#xa;    &quot;Conduct requirements validation and verification to ensure accuracy and completeness.&quot;,&#xa;    &quot;Facilitate communication between technical teams and stakeholders to ensure alignment.&quot;,&#xa;    &quot;Maintain and update requirements documentation throughout the project lifecycle.&quot;&#xa;  ],&#xa;  &quot;DesiredQualifications&quot;: [&#xa;    &quot;Bachelor’s degree in Computer Science, Information Technology, or a related field.&quot;,&#xa;    &quot;Proven experience in requirements engineering or a similar role.&quot;,&#xa;    &quot;Strong analytical and problem-solving skills.&quot;,&#xa;    &quot;Excellent communication and interpersonal skills.&quot;,&#xa;    &quot;Familiarity with requirements management tools and methodologies.&quot;,&#xa;    &quot;Ability to work collaboratively with cross-functional teams.&quot;&#xa;  ],&#xa;  &quot;Additionals&quot;: &quot;Certification in requirements engineering (e.g., CPRE, IREB) is a plus.&quot;,&#xa;  &quot;ContactUs&quot;: &quot;For more information, please contact us at: Email: certification@yourorganization.com Phone: +1 (555) 123 4567&quot;&#xa;}" style="text;whiteSpace=wrap;" vertex="1" parent="1">
          <mxGeometry x="2480" y="1985" width="560" height="380" as="geometry" />
        </mxCell>
        <mxCell id="pHoxotaa_EtgP9xHlRIr-62" value="{&#xa; &quot;Reward&quot;: &quot;Literature&quot;,  &#xa;&quot;Position&quot;: &quot;Scrum - an Agile Framework&quot;,&#xa;  &quot;AboutUs&quot;: &quot;We are a leading organization dedicated to advancing knowledge and best practices in agile methodologies. Our literature on Scrum provides comprehensive insights into the principles, practices, and benefits of this agile framework.&quot;,&#xa;  &quot;TasksAndResponsibilities&quot;: [&#xa;    &quot;Research and document the core principles and practices of Scrum.&quot;,&#xa;    &quot;Develop detailed guides and manuals on implementing Scrum in various project environments.&quot;,&#xa;    &quot;Analyze case studies and real-world applications of Scrum to provide practical examples.&quot;,&#xa;    &quot;Collaborate with industry experts to ensure the accuracy and relevance of the content.&quot;,&#xa;    &quot;Update and revise literature to reflect the latest trends and developments in agile methodologies.&quot;,&#xa;    &quot;Provide training materials and resources for Scrum practitioners and trainers.&quot;&#xa;  ],&#xa;  &quot;DesiredQualifications&quot;: [&#xa;    &quot;Extensive knowledge of Scrum and agile methodologies.&quot;,&#xa;    &quot;Experience in writing and publishing technical literature.&quot;,&#xa;    &quot;Strong research and analytical skills.&quot;,&#xa;    &quot;Excellent written communication skills.&quot;,&#xa;    &quot;Ability to collaborate with subject matter experts.&quot;,&#xa;    &quot;Familiarity with project management tools and software.&quot;&#xa;  ],&#xa;  &quot;Additionals&quot;: &quot;Certification in Scrum (e.g., CSM, PSM) is a plus.&quot;,&#xa;  &quot;ContactUs&quot;: &quot;For more information, please contact us at: Email: literature@yourorganization.com Phone: +1 (555) 123 4567&quot;&#xa;}" style="text;whiteSpace=wrap;" vertex="1" parent="1">
          <mxGeometry x="3150" y="1970" width="560" height="410" as="geometry" />
        </mxCell>
        <mxCell id="pHoxotaa_EtgP9xHlRIr-63" value="{&#xa;  &quot;WorkExperience&quot;: {&#xa;    &quot;Title&quot;: &quot;Full-Stack Webdeveloper&quot;,&#xa;    &quot;Description&quot;: &quot;We are a leading tech company specializing in innovative web solutions. Our team is dedicated to creating high-quality, user-friendly applications that meet the needs of our diverse clientele.&quot;,&#xa;    &quot;Responsibilities&quot;: [&#xa;      &quot;Develop and maintain web applications using modern frameworks and technologies.&quot;,&#xa;      &quot;Collaborate with designers and product managers to implement user-friendly features.&quot;,&#xa;      &quot;Ensure the performance, quality, and responsiveness of applications.&quot;,&#xa;      &quot;Write clean, maintainable, and efficient code.&quot;,&#xa;      &quot;Troubleshoot and debug issues across the stack.&quot;,&#xa;      &quot;Participate in code reviews and contribute to team knowledge sharing.&quot;&#xa;    ],&#xa;    &quot;Qualifications&quot;: [&#xa;      &quot;Proven experience as a Full-Stack Webdeveloper or similar role.&quot;,&#xa;      &quot;Strong proficiency in front-end technologies (e.g., HTML, CSS, JavaScript) and back-end technologies (e.g., Node.js, Python, Java).&quot;,&#xa;      &quot;Experience with modern frameworks and libraries (e.g., React, Angular, Vue).&quot;,&#xa;      &quot;Familiarity with database technologies (e.g., SQL, NoSQL).&quot;,&#xa;      &quot;Knowledge of version control systems (e.g., Git).&quot;,&#xa;      &quot;Excellent problem-solving skills and attention to detail.&quot;,&#xa;      &quot;Strong communication and teamwork abilities.&quot;&#xa;    ],&#xa;    &quot;AdditionalInfo&quot;: &quot;Experience with cloud platforms (e.g., AWS, Azure) and containerization technologies (e.g., Docker, Kubernetes) is a plus.&quot;,&#xa;    &quot;ContactDetails&quot;: &quot;For more information, please contact us at: Email: careers@techcompany.com Phone: +1 (555) 123 4567&quot;&#xa;  },&#xa;  &quot;AcademicEducation&quot;: {&#xa;    &quot;Title&quot;: &quot;BSc. Business Administration&quot;,&#xa;    &quot;Description&quot;: &quot;Our institution is dedicated to providing top-tier education in business administration, preparing students to become leaders in the corporate world. We offer a comprehensive curriculum that covers all aspects of business management and administration.&quot;,&#xa;    &quot;Responsibilities&quot;: [&#xa;      &quot;Develop and deliver lectures on business administration topics such as management, finance, marketing, and operations.&quot;,&#xa;      &quot;Create and update course materials, including syllabi, assignments, and exams.&quot;,&#xa;      &quot;Advise and mentor students on academic and career goals.&quot;,&#xa;      &quot;Conduct research in the field of business administration and publish findings in academic journals.&quot;,&#xa;      &quot;Participate in departmental meetings and contribute to curriculum development.&quot;,&#xa;      &quot;Engage with the business community to stay updated on industry trends and incorporate real-world examples into teaching.&quot;&#xa;    ],&#xa;    &quot;Qualifications&quot;: [&#xa;      &quot;Ph.D. in Business Administration or a related field.&quot;,&#xa;      &quot;Proven experience in teaching at the university level.&quot;,&#xa;      &quot;Strong research background with a record of publications in reputable journals.&quot;,&#xa;      &quot;Excellent communication and presentation skills.&quot;,&#xa;      &quot;Ability to work collaboratively with colleagues and students.&quot;,&#xa;      &quot;Commitment to fostering a positive and inclusive learning environment.&quot;&#xa;    ],&#xa;    &quot;AdditionalInfo&quot;: &quot;Experience with online teaching platforms and educational technology is a plus.&quot;,&#xa;    &quot;ContactDetails&quot;: &quot;For more information, please contact us at: Email: academic@yourinstitution.edu Phone: +1 (555) 123 4567&quot;&#xa;  },&#xa;  &quot;Services&quot;: {&#xa;    &quot;Title&quot;: &quot;IT Consulting&quot;,&#xa;    &quot;Description&quot;: &quot;We are a leading IT consulting firm dedicated to helping businesses optimize their technology infrastructure and achieve their strategic goals. Our team of experts provides comprehensive IT solutions tailored to meet the unique needs of each client.&quot;,&#xa;    &quot;Responsibilities&quot;: [&#xa;      &quot;Analyze and diagnose a company&#39;s IT infrastructure to identify areas for improvement.&quot;,&#xa;      &quot;Develop and implement technology solutions that align with business objectives.&quot;,&#xa;      &quot;Provide strategic advice on IT systems and technology investments.&quot;,&#xa;      &quot;Troubleshoot technical issues and provide ongoing support to clients.&quot;,&#xa;      &quot;Collaborate with clients to understand their business needs and tailor solutions accordingly.&quot;,&#xa;      &quot;Stay updated with the latest industry trends and technologies to provide cutting-edge solutions.&quot;&#xa;    ],&#xa;    &quot;Qualifications&quot;: [&#xa;      &quot;Bachelor’s degree in Computer Science, Information Technology, or a related field.&quot;,&#xa;      &quot;Proven experience as an IT Consultant or similar role.&quot;,&#xa;      &quot;Strong knowledge of IT systems, networks, and software.&quot;,&#xa;      &quot;Excellent problem-solving and analytical skills.&quot;,&#xa;      &quot;Strong communication and interpersonal skills.&quot;,&#xa;      &quot;Ability to manage multiple projects and prioritize tasks effectively.&quot;&#xa;    ],&#xa;    &quot;AdditionalInfo&quot;: &quot;Experience with cloud platforms (e.g., AWS, Azure) and cybersecurity solutions is a plus.&quot;,&#xa;    &quot;ContactDetails&quot;: &quot;For more information, please contact us at: Email: consulting@yourcompany.com Phone: +1 (555) 123 4567&quot;&#xa;  },&#xa;  &quot;Training&quot;: {&#xa;    &quot;Title&quot;: &quot;Project Management&quot;,&#xa;    &quot;Description&quot;: &quot;We are a premier training organization dedicated to equipping professionals with the skills and knowledge needed to excel in project management. Our comprehensive training programs are designed to help individuals and organizations achieve their project goals efficiently and effectively.&quot;,&#xa;    &quot;Responsibilities&quot;: [&#xa;      &quot;Develop and deliver training sessions on project management principles, methodologies, and best practices.&quot;,&#xa;      &quot;Create and update training materials, including manuals, presentations, and case studies.&quot;,&#xa;      &quot;Assess the training needs of participants and tailor programs to meet those needs.&quot;,&#xa;      &quot;Facilitate interactive workshops and hands-on exercises to enhance learning outcomes.&quot;,&#xa;      &quot;Evaluate the effectiveness of training programs through feedback and assessments.&quot;,&#xa;      &quot;Stay updated with the latest trends and developments in project management to ensure training content is current and relevant.&quot;&#xa;    ],&#xa;    &quot;Qualifications&quot;: [&#xa;      &quot;Bachelor’s degree in Business Administration, Project Management, or a related field.&quot;,&#xa;      &quot;Proven experience in project management and training roles.&quot;,&#xa;      &quot;Strong knowledge of project management methodologies (e.g., Agile, Scrum, Waterfall).&quot;,&#xa;      &quot;Excellent communication and presentation skills.&quot;,&#xa;      &quot;Ability to engage and motivate participants.&quot;,&#xa;      &quot;Strong organizational and time-management skills.&quot;&#xa;    ],&#xa;    &quot;AdditionalInfo&quot;: &quot;Certification in project management (e.g., PMP, PRINCE2) is a plus.&quot;,&#xa;    &quot;ContactDetails&quot;: &quot;For more information, please contact us at: Email: training@yourorganization.com Phone: +1 (555) 123 4567&quot;&#xa;  },&#xa;  &quot;Certificate&quot;: {&#xa;    &quot;Title&quot;: &quot;Requirements Engineering&quot;,&#xa;    &quot;Description&quot;: &quot;We are a leading organization dedicated to advancing the field of requirements engineering. Our certification program is designed to recognize professionals who have demonstrated expertise and excellence in this critical area of software development.&quot;,&#xa;    &quot;Responsibilities&quot;: [&#xa;      &quot;Analyze and document project requirements to ensure they meet the needs of stakeholders.&quot;,&#xa;      &quot;Collaborate with project managers and clients to identify project deliverables and timelines.&quot;,&#xa;      &quot;Develop detailed specifications and functional requirements for software projects.&quot;,&#xa;      &quot;Conduct requirements validation and verification to ensure accuracy and completeness.&quot;,&#xa;      &quot;Facilitate communication between technical teams and stakeholders to ensure alignment.&quot;,&#xa;      &quot;Maintain and update requirements documentation throughout the project lifecycle.&quot;&#xa;    ],&#xa;    &quot;Qualifications&quot;: [&#xa;      &quot;Bachelor’s degree in Computer Science, Information Technology, or a related field.&quot;,&#xa;      &quot;Proven experience in requirements engineering or a similar role.&quot;,&#xa;      &quot;Strong analytical and problem-solving skills.&quot;,&#xa;      &quot;Excellent communication and interpersonal skills.&quot;,&#xa;      &quot;Familiarity with requirements management tools and methodologies.&quot;,&#xa;      &quot;Ability to work collaboratively with cross-functional teams.&quot;&#xa;    ],&#xa;    &quot;AdditionalInfo&quot;: &quot;Certification in requirements engineering (e.g., CPRE, IREB) is a plus.&quot;,&#xa;    &quot;ContactDetails&quot;: &quot;For more information, please contact us at: Email: certification@yourorganization.com Phone: +1 (555) 123 4567&quot;&#xa;  },&#xa;  &quot;Literature&quot;: {&#xa;    &quot;Title&quot;: &quot;Scrum - an Agile Framework&quot;,&#xa;    &quot;Description&quot;: &quot;We are a leading organization dedicated to advancing knowledge and best practices in agile methodologies. Our literature on Scrum provides comprehensive insights into the principles, practices, and benefits of this agile framework.&quot;,&#xa;    &quot;Responsibilities&quot;: [&#xa;      &quot;Research and document the core principles and practices of Scrum.&quot;,&#xa;      &quot;Develop detailed guides and manuals on implementing Scrum in various project environments.&quot;,&#xa;      &quot;Analyze case studies and real-world applications of Scrum to provide practical examples.&quot;,&#xa;      &quot;Collaborate with industry experts to ensure the accuracy and relevance of the content.&quot;,&#xa;      &quot;Update and revise literature to reflect the latest trends and developments in agile methodologies.&quot;,&#xa;      &quot;Provide training materials and resources for Scrum practitioners and trainers.&quot;&#xa;    ],&#xa;    &quot;Qualifications&quot;: [&#xa;      &quot;Extensive knowledge of Scrum and agile methodologies.&quot;,&#xa;      &quot;Experience in writing and publishing technical literature.&quot;,&#xa;      &quot;Strong research and analytical skills.&quot;,&#xa;      &quot;Excellent written communication skills.&quot;,&#xa;      &quot;Ability to collaborate with subject matter experts.&quot;,&#xa;      &quot;Familiarity with project management tools and software.&quot;&#xa;    ],&#xa;    &quot;AdditionalInfo&quot;: &quot;Certification in Scrum (e.g., CSM, PSM) is a plus.&quot;,&#xa;    &quot;ContactDetails&quot;: &quot;For more information, please contact us at: Email: literature@yourorganization.com Phone: +1 (555) 123 4567&quot;&#xa;  }&#xa;}" style="text;whiteSpace=wrap;" vertex="1" parent="1">
          <mxGeometry x="1140" y="1470" width="670" height="2410" as="geometry" />
        </mxCell>
        <mxCell id="pHoxotaa_EtgP9xHlRIr-65" value="Collaboration - Jobs" style="swimlane;fontStyle=0;childLayout=stackLayout;horizontal=1;startSize=30;horizontalStack=0;resizeParent=1;resizeParentMax=0;resizeLast=0;collapsible=1;marginBottom=0;whiteSpace=wrap;html=1;" vertex="1" parent="1">
          <mxGeometry x="-560" y="600" width="270" height="470" as="geometry" />
        </mxCell>
        <mxCell id="pHoxotaa_EtgP9xHlRIr-66" value="Reward: FK" style="text;strokeColor=none;fillColor=none;align=right;verticalAlign=middle;spacingLeft=4;spacingRight=4;overflow=hidden;points=[[0,0.5],[1,0.5]];portConstraint=eastwest;rotatable=0;whiteSpace=wrap;html=1;" vertex="1" parent="pHoxotaa_EtgP9xHlRIr-65">
          <mxGeometry y="30" width="270" height="30" as="geometry" />
        </mxCell>
        <mxCell id="pHoxotaa_EtgP9xHlRIr-67" value="Expertise Area: ?" style="text;strokeColor=none;fillColor=none;align=right;verticalAlign=middle;spacingLeft=4;spacingRight=4;overflow=hidden;points=[[0,0.5],[1,0.5]];portConstraint=eastwest;rotatable=0;whiteSpace=wrap;html=1;" vertex="1" parent="pHoxotaa_EtgP9xHlRIr-65">
          <mxGeometry y="60" width="270" height="20" as="geometry" />
        </mxCell>
        <mxCell id="pHoxotaa_EtgP9xHlRIr-68" value="Title" style="text;strokeColor=none;fillColor=none;align=left;verticalAlign=middle;spacingLeft=4;spacingRight=4;overflow=hidden;points=[[0,0.5],[1,0.5]];portConstraint=eastwest;rotatable=0;whiteSpace=wrap;html=1;fontStyle=1;fontSize=17;" vertex="1" parent="pHoxotaa_EtgP9xHlRIr-65">
          <mxGeometry y="80" width="270" height="30" as="geometry" />
        </mxCell>
        <mxCell id="pHoxotaa_EtgP9xHlRIr-69" value="&lt;b&gt;Definition&lt;/b&gt;: [Your Company Name] is a leading [industry] company dedicated to delivering innovative solutions and exceptional service. We are looking for a talented Java Backend Developer to join our dynamic team." style="text;strokeColor=none;fillColor=none;align=left;verticalAlign=middle;spacingLeft=4;spacingRight=4;overflow=hidden;points=[[0,0.5],[1,0.5]];portConstraint=eastwest;rotatable=0;whiteSpace=wrap;html=1;" vertex="1" parent="pHoxotaa_EtgP9xHlRIr-65">
          <mxGeometry y="110" width="270" height="100" as="geometry" />
        </mxCell>
        <mxCell id="pHoxotaa_EtgP9xHlRIr-71" value="&lt;b&gt;...Qualifications:&lt;/b&gt;&lt;br&gt;&lt;ul style=&quot;&quot;&gt;&lt;li&gt;Proven experience as a Java Backend Developer or similar role.&lt;/li&gt;&lt;li&gt;Strong proficiency in Java and frameworks such as Spring or Spring Boot.&lt;/li&gt;&lt;li&gt;Experience with microservices architecture and RESTful APIs.&lt;/li&gt;&lt;li&gt;Familiarity with database technologies like SQL, NoSQL, and ORM frameworks.&lt;/li&gt;&lt;/ul&gt;&lt;div&gt;&lt;b style=&quot;border-color: var(--border-color);&quot;&gt;Additionals:&lt;/b&gt;&lt;br style=&quot;border-color: var(--border-color);&quot;&gt;&lt;div style=&quot;border-color: var(--border-color);&quot;&gt;Competitive salary and performance bonuses.&lt;/div&gt;&lt;div style=&quot;border-color: var(--border-color);&quot;&gt;Health, dental, and vision insurance.&amp;nbsp;Flexible working hours and remote work options.&lt;/div&gt;&lt;/div&gt;" style="text;strokeColor=none;fillColor=none;align=left;verticalAlign=middle;spacingLeft=4;spacingRight=4;overflow=hidden;points=[[0,0.5],[1,0.5]];portConstraint=eastwest;rotatable=0;whiteSpace=wrap;html=1;" vertex="1" parent="pHoxotaa_EtgP9xHlRIr-65">
          <mxGeometry y="210" width="270" height="260" as="geometry" />
        </mxCell>
        <mxCell id="pHoxotaa_EtgP9xHlRIr-75" value="Dynamic&lt;br&gt;WYSIWYG" style="ellipse;shape=cloud;whiteSpace=wrap;html=1;" vertex="1" parent="1">
          <mxGeometry x="-690" y="840" width="120" height="80" as="geometry" />
        </mxCell>
        <mxCell id="pHoxotaa_EtgP9xHlRIr-76" value="Participation&lt;br&gt;details" style="shape=step;perimeter=stepPerimeter;whiteSpace=wrap;html=1;fixedSize=1;" vertex="1" parent="1">
          <mxGeometry x="-690" y="810" width="120" height="40" as="geometry" />
        </mxCell>
        <mxCell id="pHoxotaa_EtgP9xHlRIr-77" value="Tittle" style="shape=step;perimeter=stepPerimeter;whiteSpace=wrap;html=1;fixedSize=1;" vertex="1" parent="1">
          <mxGeometry x="-690" y="670" width="120" height="40" as="geometry" />
        </mxCell>
        <mxCell id="pHoxotaa_EtgP9xHlRIr-78" value="Filter &lt;br&gt;&amp;amp; Search" style="shape=step;perimeter=stepPerimeter;whiteSpace=wrap;html=1;fixedSize=1;" vertex="1" parent="1">
          <mxGeometry x="-690" y="620" width="120" height="40" as="geometry" />
        </mxCell>
        <mxCell id="pHoxotaa_EtgP9xHlRIr-79" value="" style="html=1;verticalLabelPosition=bottom;labelBackgroundColor=#ffffff;verticalAlign=top;shadow=0;dashed=0;strokeWidth=2;shape=mxgraph.ios7.misc.star;fillColor=#0080f0;strokeColor=none;sketch=0;" vertex="1" parent="1">
          <mxGeometry x="-700" y="630" width="30" height="30" as="geometry" />
        </mxCell>
        <mxCell id="pHoxotaa_EtgP9xHlRIr-80" value="Issuer" style="shape=step;perimeter=stepPerimeter;whiteSpace=wrap;html=1;fixedSize=1;" vertex="1" parent="1">
          <mxGeometry x="-260" y="990" width="120" height="40" as="geometry" />
        </mxCell>
        <mxCell id="pHoxotaa_EtgP9xHlRIr-81" value="Defintion" style="shape=step;perimeter=stepPerimeter;whiteSpace=wrap;html=1;fixedSize=1;" vertex="1" parent="1">
          <mxGeometry x="-690" y="720" width="120" height="40" as="geometry" />
        </mxCell>
        <mxCell id="pHoxotaa_EtgP9xHlRIr-83" style="edgeStyle=orthogonalEdgeStyle;rounded=0;orthogonalLoop=1;jettySize=auto;html=1;entryX=0.75;entryY=0;entryDx=0;entryDy=0;dashed=1;" edge="1" parent="1" source="pHoxotaa_EtgP9xHlRIr-82" target="pHoxotaa_EtgP9xHlRIr-78">
          <mxGeometry relative="1" as="geometry" />
        </mxCell>
        <mxCell id="pHoxotaa_EtgP9xHlRIr-82" value="Expertise&lt;br&gt;Areas" style="shape=cylinder3;whiteSpace=wrap;html=1;boundedLbl=1;backgroundOutline=1;size=15;" vertex="1" parent="1">
          <mxGeometry x="-592" y="480" width="60" height="80" as="geometry" />
        </mxCell>
        <mxCell id="pHoxotaa_EtgP9xHlRIr-85" style="edgeStyle=orthogonalEdgeStyle;rounded=0;orthogonalLoop=1;jettySize=auto;html=1;entryX=0.25;entryY=0;entryDx=0;entryDy=0;dashed=1;" edge="1" parent="1" source="pHoxotaa_EtgP9xHlRIr-84" target="pHoxotaa_EtgP9xHlRIr-78">
          <mxGeometry relative="1" as="geometry" />
        </mxCell>
        <mxCell id="pHoxotaa_EtgP9xHlRIr-84" value="Awards" style="shape=cylinder3;whiteSpace=wrap;html=1;boundedLbl=1;backgroundOutline=1;size=15;" vertex="1" parent="1">
          <mxGeometry x="-730" y="480" width="60" height="80" as="geometry" />
        </mxCell>
        <mxCell id="pHoxotaa_EtgP9xHlRIr-86" value="MVP&lt;br&gt;Collaboration Definitions" style="html=1;verticalLabelPosition=bottom;labelBackgroundColor=#ffffff;verticalAlign=top;shadow=0;dashed=0;strokeWidth=2;shape=mxgraph.ios7.misc.star;fillColor=#0080f0;strokeColor=none;sketch=0;" vertex="1" parent="1">
          <mxGeometry x="-455" y="505" width="60" height="50" as="geometry" />
        </mxCell>
        <mxCell id="pHoxotaa_EtgP9xHlRIr-87" value="Skills" style="shape=step;perimeter=stepPerimeter;whiteSpace=wrap;html=1;fixedSize=1;" vertex="1" parent="1">
          <mxGeometry x="-190" y="550" width="120" height="40" as="geometry" />
        </mxCell>
        <mxCell id="pHoxotaa_EtgP9xHlRIr-88" value="Skills" style="shape=cylinder3;whiteSpace=wrap;html=1;boundedLbl=1;backgroundOutline=1;size=15;" vertex="1" parent="1">
          <mxGeometry x="-660" y="400" width="60" height="80" as="geometry" />
        </mxCell>
        <mxCell id="pHoxotaa_EtgP9xHlRIr-89" style="edgeStyle=orthogonalEdgeStyle;rounded=0;orthogonalLoop=1;jettySize=auto;html=1;entryX=0.5;entryY=0;entryDx=0;entryDy=0;dashed=1;" edge="1" parent="1" source="pHoxotaa_EtgP9xHlRIr-88" target="pHoxotaa_EtgP9xHlRIr-78">
          <mxGeometry relative="1" as="geometry" />
        </mxCell>
        <mxCell id="pHoxotaa_EtgP9xHlRIr-92" value="&lt;h1&gt;Prototype - Collaboration&lt;/h1&gt;&lt;p&gt;Lorem ipsum dolor sit amet, consectetur adipisicing elit, sed do eiusmod tempor incididunt ut labore et dolore magna aliqua.&lt;/p&gt;" style="text;html=1;strokeColor=none;fillColor=none;spacing=5;spacingTop=-20;whiteSpace=wrap;overflow=hidden;rounded=0;" vertex="1" parent="1">
          <mxGeometry x="-780" y="240" width="190" height="120" as="geometry" />
        </mxCell>
        <mxCell id="pHoxotaa_EtgP9xHlRIr-93" value="Rewarded skills" style="swimlane;fontStyle=0;childLayout=stackLayout;horizontal=1;startSize=30;horizontalStack=0;resizeParent=1;resizeParentMax=0;resizeLast=0;collapsible=1;marginBottom=0;whiteSpace=wrap;html=1;" vertex="1" parent="1">
          <mxGeometry x="-260" y="600" width="230" height="250" as="geometry" />
        </mxCell>
        <mxCell id="pHoxotaa_EtgP9xHlRIr-70" value="&lt;b&gt;Skill Aquisition:&lt;/b&gt;&lt;br&gt;&lt;ul style=&quot;&quot;&gt;&lt;li style=&quot;&quot;&gt;Design, develop, and maintain backend services and APIs using Java and Spring.&lt;/li&gt;&lt;li style=&quot;&quot;&gt;Collaborate with front-end developers and other team members to integrate user-facing elements with server-side logic.&lt;/li&gt;&lt;li style=&quot;&quot;&gt;Implement and maintain microservices architectures that are scalable, reliable, and efficient.&lt;/li&gt;&lt;/ul&gt;" style="text;strokeColor=none;fillColor=none;align=left;verticalAlign=middle;spacingLeft=4;spacingRight=4;overflow=hidden;points=[[0,0.5],[1,0.5]];portConstraint=eastwest;rotatable=0;whiteSpace=wrap;html=1;" vertex="1" parent="pHoxotaa_EtgP9xHlRIr-93">
          <mxGeometry y="30" width="230" height="220" as="geometry" />
        </mxCell>
        <mxCell id="pHoxotaa_EtgP9xHlRIr-97" style="edgeStyle=orthogonalEdgeStyle;rounded=0;orthogonalLoop=1;jettySize=auto;html=1;entryX=1;entryY=0.5;entryDx=0;entryDy=0;entryPerimeter=0;exitX=0.5;exitY=0;exitDx=0;exitDy=0;dashed=1;" edge="1" parent="1" source="pHoxotaa_EtgP9xHlRIr-87" target="pHoxotaa_EtgP9xHlRIr-88">
          <mxGeometry relative="1" as="geometry" />
        </mxCell>
        <mxCell id="pHoxotaa_EtgP9xHlRIr-98" value="Issuer details" style="swimlane;fontStyle=0;childLayout=stackLayout;horizontal=1;startSize=30;horizontalStack=0;resizeParent=1;resizeParentMax=0;resizeLast=0;collapsible=1;marginBottom=0;whiteSpace=wrap;html=1;" vertex="1" parent="1">
          <mxGeometry x="-260" y="870" width="230" height="110" as="geometry" />
        </mxCell>
        <mxCell id="pHoxotaa_EtgP9xHlRIr-100" value="&lt;b&gt;Contact us:&lt;/b&gt;&lt;br&gt;&lt;div style=&quot;&quot;&gt;Carlson Patrick&lt;/div&gt;&lt;div style=&quot;&quot;&gt;hello@gigup.ch&lt;/div&gt;&lt;div style=&quot;&quot;&gt;+41 78 788 78 78&lt;/div&gt;" style="text;strokeColor=none;fillColor=none;align=left;verticalAlign=middle;spacingLeft=4;spacingRight=4;overflow=hidden;points=[[0,0.5],[1,0.5]];portConstraint=eastwest;rotatable=0;whiteSpace=wrap;html=1;" vertex="1" parent="pHoxotaa_EtgP9xHlRIr-98">
          <mxGeometry y="30" width="230" height="80" as="geometry" />
        </mxCell>
        <mxCell id="pHoxotaa_EtgP9xHlRIr-101" value="&lt;h1&gt;Research&lt;/h1&gt;&lt;p&gt;Lorem ipsum dolor sit amet, consectetur adipisicing elit, sed do eiusmod tempor incididunt ut labore et dolore magna aliqua.&lt;/p&gt;" style="text;html=1;strokeColor=none;fillColor=none;spacing=5;spacingTop=-20;whiteSpace=wrap;overflow=hidden;rounded=0;" vertex="1" parent="1">
          <mxGeometry x="-770" y="1340" width="190" height="120" as="geometry" />
        </mxCell>
      </root>
    </mxGraphModel>
  </diagram>
</mxfile>
